<svg width="562" height="521" viewBox="0 0 562 521" fill="none" xmlns="http://www.w3.org/2000/svg">
<g clip-path="url(#clip0_106_2)">
<path d="M97.9463 151.052L100.102 155.421L104.923 156.121L101.435 159.523L102.258 164.324L97.9463 162.056L93.6343 164.324L94.4578 159.523L90.9692 156.121L95.7906 155.421L97.9463 151.052Z" fill="#E7E8E5"/>
<path d="M529.48 356.701L531.637 361.069L536.457 361.771L532.969 365.169L533.793 369.972L529.48 367.706L525.168 369.972L525.992 365.169L522.504 361.771L527.324 361.069L529.48 356.701Z" fill="#F3F2F1"/>
<path d="M444.007 483.477L446.163 487.846L450.983 488.547L447.495 491.947L448.319 496.748L444.007 494.482L439.695 496.748L440.517 491.947L437.029 488.547L441.851 487.846L444.007 483.477Z" fill="#F3F2F1"/>
<path d="M248.467 73.5962L249.268 75.2175L251.057 75.4775C251.504 75.5428 251.683 76.0908 251.359 76.4055L250.064 77.6682L250.369 79.4495C250.447 79.8948 249.979 80.2335 249.58 80.0242L247.979 79.1828L246.379 80.0242C245.979 80.2335 245.512 79.8948 245.588 79.4495L245.893 77.6682L244.599 76.4055C244.276 76.0908 244.455 75.5428 244.901 75.4775L246.691 75.2175L247.491 73.5962C247.691 73.1908 248.267 73.1908 248.467 73.5962Z" fill="#E7E8E5"/>
<path d="M28.243 462.734L29.0436 464.355L30.8332 464.615C31.2801 464.68 31.4577 465.228 31.1353 465.544L29.84 466.806L30.1457 468.588C30.2217 469.034 29.755 469.373 29.3556 469.161L27.7545 468.322L26.154 469.161C25.7545 469.373 25.2878 469.034 25.3638 468.588L25.6696 466.806L24.3749 465.544C24.052 465.228 24.2301 464.68 24.6764 464.615L26.4665 464.355L27.2665 462.734C27.4665 462.328 28.0436 462.328 28.243 462.734Z" fill="#F3F2F1"/>
<path d="M64.214 56.4573L65.0145 58.0787L66.8041 58.3387C67.2505 58.404 67.4286 58.9534 67.1057 59.268L65.8109 60.5307L66.1166 62.3133C66.1926 62.7573 65.726 63.0973 65.3265 62.8867L63.7254 62.0453L62.125 62.8867C61.7254 63.0973 61.2588 62.7573 61.3349 62.3133L61.6406 60.5307L60.3458 59.268C60.0224 58.9534 60.201 58.404 60.6473 58.3387L62.4369 58.0787L63.2374 56.4573C63.4369 56.0533 64.0145 56.0533 64.214 56.4573Z" fill="#E7E8E5"/>
<path d="M62.0483 377.816C62.0483 378.792 61.2562 379.585 60.2786 379.585C59.3015 379.585 58.5093 378.792 58.5093 377.816C58.5093 376.837 59.3015 376.047 60.2786 376.047C61.2562 376.047 62.0483 376.837 62.0483 377.816Z" fill="#E7E8E5"/>
<path d="M314.769 155.916C314.769 156.892 313.977 157.685 313 157.685C312.023 157.685 311.229 156.892 311.229 155.916C311.229 154.939 312.023 154.145 313 154.145C313.977 154.145 314.769 154.939 314.769 155.916Z" fill="#E7E8E5"/>
<path d="M222.817 57.924C222.817 58.9014 222.024 59.6934 221.047 59.6934C220.069 59.6934 219.277 58.9014 219.277 57.924C219.277 56.9467 220.069 56.1547 221.047 56.1547C222.024 56.1547 222.817 56.9467 222.817 57.924Z" fill="#F3F2F1"/>
<path d="M233.195 480.558C233.195 475.149 228.808 470.763 223.398 470.763C217.987 470.763 213.602 475.149 213.602 480.558C213.602 485.97 217.987 490.356 223.398 490.356C228.808 490.356 233.195 485.97 233.195 480.558Z" fill="#EDEDEB"/>
<path d="M220.004 474.843C217.924 474.843 215.991 475.509 214.417 476.658C213.897 477.856 213.604 479.176 213.604 480.563C213.604 485.976 217.991 490.349 223.404 490.349C225.231 490.349 226.951 489.843 228.417 488.963V488.949C229.151 487.591 229.564 486.044 229.564 484.389C229.564 479.123 225.284 474.843 220.004 474.843Z" fill="#E2E2E0"/>
<path d="M144.115 275.693V225.244L101.241 275.693H144.115ZM144.115 310.249H62.9746V273.616L144.115 177.167H182.935V275.693H203.056V310.249H182.935V340.213H144.115V310.249Z" fill="#B91C1C"/>
<path d="M261.122 259.509C261.122 279.923 262.926 293.865 266.535 301.337C270.144 308.811 275.374 312.547 282.226 312.547C286.746 312.547 290.664 310.961 293.982 307.789C297.299 304.617 299.74 299.607 301.31 292.753C302.876 285.901 303.66 275.22 303.66 260.713C303.66 239.427 301.855 225.119 298.247 217.792C294.638 210.465 289.226 206.801 282.008 206.801C274.644 206.801 269.323 210.54 266.042 218.011C262.762 225.485 261.122 239.317 261.122 259.509ZM216.943 259.4C216.943 228.929 222.427 207.605 233.4 195.431C244.372 183.255 261.084 177.167 283.539 177.167C294.328 177.167 303.186 178.499 310.112 181.159C317.038 183.821 322.688 187.281 327.062 191.548C331.435 195.812 334.88 200.296 337.395 204.997C339.911 209.7 341.934 215.185 343.464 221.456C346.452 233.413 347.947 245.879 347.947 258.855C347.947 287.941 343.027 309.229 333.186 322.717C323.343 336.204 306.394 342.945 282.336 342.945C268.848 342.945 257.95 340.795 249.64 336.493C241.328 332.193 234.511 325.887 229.191 317.576C225.326 311.671 222.319 303.597 220.17 293.355C218.018 283.112 216.943 271.795 216.943 259.4Z" fill="#B91C1C"/>
<path d="M442.865 275.693V225.244L399.992 275.693H442.865ZM442.865 310.249H361.725V273.616L442.865 177.167H481.686V275.693H501.806V310.249H481.686V340.213H442.865V310.249Z" fill="#B91C1C"/>
<path d="M212.656 123.368C211.283 123.368 210.169 122.255 210.169 120.88C210.169 119.507 211.283 118.393 212.656 118.393C214.029 118.393 215.143 119.507 215.143 120.88C215.143 122.255 214.029 123.368 212.656 123.368Z" fill="#B8D2EF"/>
<path d="M44.4956 216.66C43.5216 216.66 42.7314 215.869 42.7314 214.895C42.7314 213.921 43.5216 213.131 44.4956 213.131C45.4696 213.131 46.2596 213.921 46.2596 214.895C46.2596 215.869 45.4696 216.66 44.4956 216.66Z" fill="#B8D2EF"/>
<path d="M335.28 473.692C333.886 473.692 332.755 472.561 332.755 471.167C332.755 469.773 333.886 468.643 335.28 468.643C336.674 468.643 337.804 469.773 337.804 471.167C337.804 472.561 336.674 473.692 335.28 473.692Z" fill="#B8D2EF"/>
<path d="M395.872 371.155C394.897 371.155 394.108 370.364 394.108 369.389C394.108 368.416 394.897 367.625 395.872 367.625C396.847 367.625 397.636 368.416 397.636 369.389C397.636 370.364 396.847 371.155 395.872 371.155Z" fill="#B8D2EF"/>
<path d="M511.008 55.9788C510.033 55.9788 509.244 55.1894 509.244 54.2148C509.244 53.2401 510.033 52.4508 511.008 52.4508C511.981 52.4508 512.772 53.2401 512.772 54.2148C512.772 55.1894 511.981 55.9788 511.008 55.9788Z" fill="#B8D2EF"/>
<path d="M175.783 20.4387C174.808 20.4387 174.019 19.6481 174.019 18.6734C174.019 17.7001 174.808 16.9094 175.783 16.9094C176.756 16.9094 177.547 17.7001 177.547 18.6734C177.547 19.6481 176.756 20.4387 175.783 20.4387Z" fill="#B8D2EF"/>
<path d="M317.468 111.077C316.495 111.077 315.704 110.288 315.704 109.315C315.704 108.339 316.495 107.551 317.468 107.551C318.443 107.551 319.232 108.339 319.232 109.315C319.232 110.288 318.443 111.077 317.468 111.077Z" fill="#B8D2EF"/>
<path d="M164.732 81.8693C164.732 98.004 151.653 111.084 135.519 111.084C119.384 111.084 106.305 98.004 106.305 81.8693C106.305 65.736 119.384 52.6573 135.519 52.6573C151.653 52.6573 164.732 65.736 164.732 81.8693Z" fill="#406FBF"/>
<path d="M135.519 111.084C119.384 111.084 106.305 98.004 106.305 81.8693C106.305 65.736 119.384 52.6573 135.519 52.6573C151.653 52.6573 164.732 65.736 164.732 81.8693C164.732 93.8933 157.469 104.22 147.091 108.703V108.691C151.797 103.499 154.671 96.6133 154.671 89.048C154.671 72.9053 141.595 59.8293 125.451 59.8293C121.356 59.8293 117.469 60.676 113.93 62.1893C109.196 67.3813 106.309 74.2933 106.309 81.8733C106.309 98.0013 119.385 111.077 135.515 111.077C139.299 111.077 142.917 110.36 146.241 109.053C142.923 110.364 139.304 111.084 135.519 111.084ZM151.289 62.2133C149.813 62.2133 148.619 63.408 148.619 64.884C148.619 66.3587 149.813 67.5533 151.289 67.5533C152.764 67.5533 153.959 66.3587 153.959 64.884C153.959 63.408 152.764 62.2133 151.289 62.2133Z" fill="#FECACA"/>
<path d="M146.241 109.053C146.528 108.94 146.809 108.824 147.091 108.703V108.704C146.811 108.824 146.527 108.941 146.241 109.053Z" fill="#CFE0F4"/>
<path d="M135.515 111.077C119.385 111.077 106.31 98.0014 106.31 81.8734C106.31 74.2934 109.197 67.3814 113.931 62.1894C117.47 60.6761 121.357 59.8294 125.451 59.8294C141.595 59.8294 154.671 72.9054 154.671 89.0481C154.671 96.6134 151.798 103.499 147.091 108.691V108.703C146.81 108.824 146.528 108.94 146.242 109.053C142.918 110.36 139.299 111.077 135.515 111.077ZM128.889 90.5441C125.663 90.5441 123.048 93.1587 123.048 96.3841C123.048 99.6107 125.663 102.225 128.889 102.225C132.115 102.225 134.731 99.6107 134.731 96.3841C134.731 93.1587 132.115 90.5441 128.889 90.5441ZM144.248 79.5534C141.835 79.5534 139.878 81.5107 139.878 83.9254C139.878 86.3374 141.835 88.2947 144.248 88.2947C146.662 88.2947 148.619 86.3374 148.619 83.9254C148.619 81.5107 146.662 79.5534 144.248 79.5534ZM119.876 64.8841C118.402 64.8841 117.206 66.0787 117.206 67.5534C117.206 69.0294 118.402 70.2254 119.876 70.2254C121.351 70.2254 122.547 69.0294 122.547 67.5534C122.547 66.0787 121.351 64.8841 119.876 64.8841Z" fill="#FCA5A5"/>
<path d="M119.876 70.2253C118.401 70.2253 117.206 69.0293 117.206 67.5533C117.206 66.0787 118.401 64.884 119.876 64.884C121.351 64.884 122.547 66.0787 122.547 67.5533C122.547 69.0293 121.351 70.2253 119.876 70.2253Z" fill="#F87171"/>
<path d="M151.289 67.5535C149.813 67.5535 148.619 66.3588 148.619 64.8841C148.619 63.4081 149.813 62.2135 151.289 62.2135C152.764 62.2135 153.959 63.4081 153.959 64.8841C153.959 66.3588 152.764 67.5535 151.289 67.5535Z" fill="#F87171"/>
<path d="M144.248 88.2947C141.835 88.2947 139.877 86.3373 139.877 83.9253C139.877 81.5107 141.835 79.5533 144.248 79.5533C146.661 79.5533 148.619 81.5107 148.619 83.9253C148.619 86.3373 146.661 88.2947 144.248 88.2947Z" fill="#F87171"/>
<path d="M128.889 102.225C125.663 102.225 123.047 99.6107 123.047 96.384C123.047 93.1587 125.663 90.544 128.889 90.544C132.115 90.544 134.731 93.1587 134.731 96.384C134.731 99.6107 132.115 102.225 128.889 102.225Z" fill="#F87171"/>
<path d="M482.439 428.388C482.439 442.547 470.961 454.023 456.804 454.023C442.647 454.023 431.169 442.547 431.169 428.388C431.169 414.23 442.647 402.755 456.804 402.755C470.961 402.755 482.439 414.23 482.439 428.388Z" fill="#406FBF"/>
<path d="M449.415 452.941C438.86 449.77 431.169 439.977 431.169 428.388C431.169 414.23 442.647 402.755 456.804 402.755C463.479 402.755 469.557 405.306 474.119 409.485C473.751 409.149 473.372 408.823 472.985 408.508C470.653 407.801 468.168 407.427 465.6 407.427C451.441 407.427 439.963 418.906 439.963 433.064C439.963 441.088 443.641 448.236 449.415 452.941ZM464.461 452.859C474.879 449.601 482.437 439.876 482.437 428.385C482.437 427.808 482.419 427.235 482.381 426.665C482.419 427.235 482.439 427.81 482.439 428.388C482.439 439.879 474.879 449.603 464.461 452.859Z" fill="#B91C1C"/>
<path d="M456.8 454.024C454.232 454.024 451.748 453.649 449.415 452.941C451.755 453.646 454.235 454.023 456.804 454.023C459.471 454.023 462.043 453.615 464.461 452.859C462.043 453.616 459.468 454.024 456.8 454.024ZM482.381 426.665C481.931 419.876 478.837 413.81 474.119 409.485C478.841 413.803 481.932 419.873 482.381 426.665Z" fill="#A3C3EA"/>
<path d="M456.804 454.023C454.235 454.023 451.755 453.646 449.415 452.941C443.642 448.236 439.963 441.088 439.963 433.064C439.963 418.906 451.442 407.427 465.6 407.427C468.168 407.427 470.654 407.801 472.986 408.508C473.372 408.823 473.751 409.149 474.119 409.485C478.838 413.81 481.931 419.876 482.382 426.665C482.419 427.235 482.438 427.808 482.438 428.385C482.438 439.876 474.879 449.601 464.462 452.859C462.043 453.615 459.471 454.023 456.804 454.023Z" fill="#991B1B"/>
<path d="M432.315 435.987C404.936 448.871 425.36 458.799 463.931 444.937C499.643 432.103 513.22 415.911 481.332 420.929C482.979 427.74 438.251 445.168 432.315 435.987Z" fill="#7F1D1D"/>
<path d="M472.665 177.167H467.905C467.907 177.165 467.909 177.165 467.911 177.163H472.671C472.668 177.165 472.667 177.165 472.665 177.167Z" fill="#C3C5C2"/>
<path d="M377.591 310.244H374.857C387.323 234.275 432.04 201.487 467.905 177.167H472.665C436.812 201.393 390.403 233.341 377.591 310.244Z" fill="#991B1B"/>
<path d="M287.233 417.746C264.607 417.747 242.155 407.529 231.252 390.829C224.515 380.511 216.691 358.896 239.992 330.059L242.067 331.736C225.583 352.135 222.535 372.604 233.484 389.372C246.809 409.783 278.279 420.047 305.124 412.743C332.628 405.259 349.327 381.333 350.939 347.105C356.452 230.029 418.652 193.965 464.068 167.632C492.284 151.272 512.671 139.451 508.189 114.515C507.568 111.056 506.188 108.665 503.972 107.207C498.168 103.381 486.835 106.025 473.713 109.084C447.972 115.08 412.719 123.293 391.717 87.5722L394.016 86.2202C414.024 120.252 446.784 112.62 473.108 106.487C486.828 103.291 498.677 100.531 505.437 104.979C508.297 106.861 510.056 109.827 510.813 114.044C515.625 140.82 493.464 153.669 465.405 169.94C420.52 195.964 359.048 231.608 353.603 347.229C351.932 382.691 334.519 407.507 305.824 415.316C299.777 416.961 293.496 417.744 287.233 417.746Z" fill="#406FBF"/>
<path d="M287.234 417.746C282.338 417.746 277.45 417.268 272.686 416.349C272.574 416.327 272.463 416.306 272.352 416.284C255.23 412.904 239.74 403.832 231.252 390.829C230.999 390.444 230.746 390.043 230.492 389.624C231.011 388.741 231.522 387.853 232.022 386.963C232.478 387.773 232.966 388.577 233.484 389.372C243.906 405.335 265.427 415.092 287.152 415.092C293.207 415.092 299.274 414.335 305.124 412.743C332.628 405.259 349.327 381.333 350.939 347.105C356.452 230.029 418.652 193.966 464.068 167.632C489.652 152.798 508.8 141.695 508.808 121.164C508.81 119.052 508.608 116.84 508.19 114.515C507.568 111.056 506.188 108.665 503.972 107.207C501.915 105.851 499.163 105.308 495.884 105.308C489.91 105.308 482.186 107.109 473.714 109.084C463.118 111.552 450.906 114.396 438.744 114.396C423.542 114.398 408.416 109.958 396.595 94.7868C397.134 93.9148 397.606 93.0442 397.971 92.2029C409.247 107.336 423.684 111.812 438.527 111.812C450.252 111.812 462.228 109.022 473.108 106.487C481.692 104.487 489.543 102.659 495.874 102.659C499.663 102.659 502.907 103.313 505.438 104.979C508.298 106.861 510.056 109.827 510.814 114.044C511.26 116.528 511.475 118.892 511.474 121.151C511.463 143.233 490.86 155.179 465.406 169.94C461.411 172.255 457.282 174.65 453.076 177.167C445.73 181.566 438.139 186.347 430.575 191.777C408.914 207.328 387.487 228.189 372.695 260.579C368.44 269.895 364.731 280.175 361.726 291.545C357.45 307.735 354.595 326.151 353.603 347.229C351.932 382.691 334.519 407.507 305.824 415.316C300.259 416.831 294.496 417.613 288.731 417.731C288.619 417.732 288.508 417.735 288.398 417.736C288.01 417.743 287.622 417.746 287.234 417.746Z" fill="#DC2626"/>
<path d="M364.217 55.9894C373.359 55.8228 382.328 58.8348 382.328 58.8348C382.328 58.8348 396.947 83.8614 398.731 89.5894C398.116 95.2428 388.576 104.511 388.576 104.511L364.217 55.9894Z" fill="#406FBF"/>
<path d="M393.817 98.6814C393.412 98.1374 392.987 97.5894 392.541 97.0387C392.648 96.9774 392.755 96.9174 392.86 96.8561C392.864 96.7921 392.867 96.7281 392.867 96.6667C392.864 95.4147 391.956 94.7521 391.956 94.7521C391.956 94.7521 391.921 94.7694 391.856 94.8041C391.349 91.1067 388.976 84.4761 385.784 76.6827C385.787 76.6854 385.789 76.6867 385.792 76.6894C385.253 75.3747 384.692 74.0321 384.113 72.6641C385.952 73.7067 387.747 74.7561 389.435 75.8081C390.805 76.5907 392.384 78.0161 394 79.6601C396.288 83.9747 398.161 87.7627 398.731 89.5894C398.643 90.3987 398.371 91.2828 397.971 92.2028C397.605 93.0441 397.133 93.9147 396.595 94.7867C395.773 96.1161 394.799 97.4481 393.817 98.6814Z" fill="#EF4444"/>
<path d="M407.66 177.567C402.147 170.569 396.731 163.441 392.248 155.719C391.128 153.789 390.067 151.827 389.063 149.832C388.492 148.701 387.94 147.559 387.404 146.409C386.936 145.407 385.903 143.928 385.799 142.831C384.197 125.936 389.981 113.497 384.428 99.9362L362.467 108.519C362.467 108.519 364.335 132.681 368.599 147.136C371.244 156.104 377.231 163.868 383.003 171.052C384.808 173.3 386.547 175.6 388.349 177.851C390.055 179.981 391.964 181.936 393.675 184.055C396.271 187.273 397.135 190.344 395.161 194.137C395.056 194.34 394.945 194.541 394.832 194.741C394.272 195.729 396.895 196.849 398.54 194.768C401.263 191.328 400.835 191.54 403.156 188.605C404.565 186.824 406.184 184.899 407.581 183.227C408.945 181.597 408.976 179.236 407.66 177.567Z" fill="#406FBF"/>
<path d="M396.286 195.944C395.431 195.944 394.755 195.504 394.755 195.02C394.755 194.928 394.78 194.835 394.832 194.741C394.946 194.541 395.056 194.34 395.162 194.137C395.902 192.715 396.243 191.393 396.243 190.129C396.243 188.02 395.298 186.067 393.675 184.055C391.964 181.936 390.055 179.981 388.35 177.851C386.547 175.6 384.808 173.3 383.003 171.052C377.231 163.868 371.244 156.104 368.599 147.136C364.842 134.4 362.946 114.127 362.547 109.487C362.726 109.681 362.867 109.812 362.867 109.812C362.867 109.812 366.839 108.451 372.235 106.337C373.912 109.269 379.615 119.112 385.862 128.484C385.659 131.049 385.508 133.699 385.508 136.461C385.507 138.517 385.591 140.637 385.799 142.831C385.903 143.928 386.936 145.407 387.404 146.409C387.94 147.559 388.492 148.701 389.063 149.832C390.067 151.827 391.128 153.789 392.248 155.719C395.259 160.905 398.69 165.823 402.29 170.615C399.35 174.168 393.372 178.777 390.738 180.645C391.311 181.283 391.879 181.936 392.448 182.588C397.87 179.047 402.156 174.453 403.784 172.584C405.063 174.257 406.359 175.916 407.66 177.567C408.303 178.383 408.624 179.361 408.627 180.341C408.627 180.456 408.623 180.572 408.614 180.687C408.692 179.596 408.372 178.481 407.655 177.569L407.5 177.376C406.575 178.34 405.923 179.877 405.814 181.603C405.726 182.793 405.927 183.884 406.318 184.736C406.36 184.687 406.402 184.637 406.444 184.588C405.35 185.899 404.196 187.291 403.156 188.605C400.835 191.54 401.263 191.328 398.54 194.768C397.858 195.631 397.008 195.944 396.286 195.944Z" fill="#FCA5A5"/>
<path d="M403.784 172.584C403.282 171.931 402.784 171.273 402.289 170.615C402.289 170.615 402.289 170.615 402.289 170.613C402.788 171.275 403.285 171.936 403.786 172.581C403.785 172.583 403.784 172.584 403.784 172.584Z" fill="#B8D2EF"/>
<path d="M392.448 182.588C391.879 181.936 391.311 181.283 390.737 180.645C393.372 178.777 399.349 174.168 402.289 170.615C402.784 171.273 403.283 171.931 403.784 172.584C402.156 174.453 397.869 179.047 392.448 182.588Z" fill="#F87171"/>
<path d="M406.444 184.588C406.833 184.121 407.215 183.665 407.581 183.227C408.201 182.487 408.545 181.596 408.613 180.687C408.548 181.596 408.205 182.488 407.583 183.229C407.215 183.665 406.84 184.124 406.444 184.588Z" fill="#B8D2EF"/>
<path d="M406.317 184.736C405.927 183.884 405.725 182.793 405.813 181.603C405.923 179.877 406.575 178.34 407.5 177.376L407.655 177.569C408.372 178.481 408.692 179.596 408.613 180.687C408.545 181.596 408.201 182.487 407.581 183.227C407.215 183.665 406.833 184.121 406.444 184.588C406.401 184.637 406.36 184.687 406.317 184.736Z" fill="#F87171"/>
<path d="M358.997 71.992C356.7 75.332 353.992 78.624 350.497 81.5827C348.761 83.0693 346.782 84.4133 344.608 85.556C343.509 86.116 342.357 86.6014 341.164 87.0014L340.264 87.2907L339.973 87.3813C339.762 87.4467 339.55 87.5027 339.337 87.5533C338.934 87.6453 338.53 87.708 338.173 87.736C336.729 87.8454 335.684 87.64 334.821 87.4253C333.118 86.9613 331.981 86.34 330.905 85.74C329.844 85.1293 328.914 84.5013 328.033 83.8547C326.297 82.5333 324.726 81.208 323.262 79.7907C320.314 76.9773 317.702 74.0587 315.276 70.8093C314.17 69.3293 314.473 67.2307 315.954 66.1253C317.097 65.272 318.608 65.2573 319.745 65.976L319.846 66.0413C322.993 68.04 326.168 70.1454 329.265 72.0307C330.83 72.9547 332.358 73.8814 333.86 74.6027C334.598 74.9774 335.322 75.3173 335.976 75.5587C336.612 75.8067 337.246 75.948 337.412 75.916C337.481 75.9107 337.398 75.8174 336.908 75.8347C336.789 75.84 336.621 75.856 336.45 75.8933L336.16 75.968L336.206 75.9347L336.646 75.708C337.234 75.4107 337.797 75.036 338.366 74.6587C339.508 73.8867 340.594 72.9053 341.702 71.8293C343.897 69.6507 346.009 66.936 348.238 64.116L348.269 64.0773C350.552 61.1867 354.746 60.6947 357.637 62.9787C360.405 65.164 360.96 69.1227 358.997 71.992Z" fill="#406FBF"/>
<path d="M337.387 87.7668C336.336 87.7668 335.519 87.5988 334.822 87.4255C333.119 86.9615 331.982 86.3402 330.906 85.7402C329.844 85.1295 328.915 84.5015 328.034 83.8548C326.298 82.5335 324.727 81.2082 323.263 79.7908C320.315 76.9775 317.703 74.0588 315.276 70.8095C315.038 70.4895 314.864 70.1402 314.755 69.7788C314.959 69.8842 315.174 69.9708 315.399 70.0322L321.871 67.9362L321.547 67.3922L321.556 67.3935C321.476 67.2722 321.404 67.1388 321.34 66.9948C323.995 68.7002 326.658 70.4428 329.266 72.0308C330.831 72.9548 332.359 73.8815 333.86 74.6028C334.599 74.9775 335.323 75.3175 335.976 75.5588C336.174 75.6362 336.371 75.7028 336.554 75.7575L336.647 75.7082C337.235 75.4108 337.798 75.0362 338.367 74.6588C339.508 73.8868 340.595 72.9055 341.703 71.8295C343.898 69.6508 346.01 66.9362 348.239 64.1162L348.27 64.0775C348.731 63.4935 349.271 63.0068 349.863 62.6215C348.432 63.7122 347.614 65.4108 347.615 67.1882C347.615 67.5722 347.654 67.9602 347.732 68.3455C348.536 72.2922 349.664 76.6588 351.028 81.1255C350.854 81.2788 350.676 81.4308 350.498 81.5828C348.762 83.0695 346.783 84.4135 344.608 85.5562C343.51 86.1162 342.358 86.6015 341.164 87.0015L340.264 87.2908L339.974 87.3815C339.763 87.4468 339.551 87.5028 339.338 87.5535C338.935 87.6455 338.531 87.7082 338.174 87.7362C337.898 87.7575 337.636 87.7668 337.387 87.7668ZM336.851 75.8375C337.07 75.8922 337.248 75.9202 337.352 75.9202C337.376 75.9202 337.396 75.9188 337.412 75.9162C337.426 75.9148 337.434 75.9108 337.434 75.9042C337.435 75.8815 337.33 75.8322 337.022 75.8322C336.987 75.8322 336.95 75.8322 336.908 75.8348C336.891 75.8348 336.871 75.8362 336.851 75.8375Z" fill="#FCA5A5"/>
<path d="M310.255 63.2773L311.817 65.8986C311.817 65.8986 313.011 69.3866 315.399 70.032L321.871 67.936L321.547 67.392L321.556 67.3933C320.727 66.1306 320.816 63.696 321.107 61.6706C321.399 59.6466 320.348 59.5733 319.572 60.0773C319.123 60.368 318.807 61.292 318.443 62.288C318.124 61.8493 317.783 61.4266 317.397 61.044L315.42 59.0733C314.567 58.2253 313.2 58.1853 312.3 58.9866L310.697 60.4106C309.881 61.136 309.695 62.3386 310.255 63.2773Z" fill="#406FBF"/>
<path d="M315.398 70.032C313.01 69.3866 311.817 65.8986 311.817 65.8986L310.254 63.2773C310.038 62.9146 309.933 62.512 309.933 62.1133C309.933 61.48 310.197 60.856 310.697 60.4106L312.3 58.9866C312.733 58.6013 313.273 58.4106 313.813 58.4106C314.396 58.4106 314.977 58.6333 315.42 59.0733L317.397 61.044C317.782 61.4266 318.124 61.8493 318.442 62.288C318.806 61.292 319.122 60.368 319.572 60.0773C319.817 59.9173 320.09 59.816 320.341 59.816C320.786 59.816 321.156 60.14 321.157 61.036C321.157 61.2227 321.141 61.4333 321.106 61.6706C320.986 62.5093 320.9 63.4186 320.9 64.2853C320.898 65.5106 321.069 66.6533 321.556 67.3933L321.546 67.392L321.87 67.936L315.398 70.032Z" fill="#FCA5A5"/>
<path d="M370.774 53.6893C364.575 55.1933 356.059 58.7293 350.308 62.3133C348.27 63.5827 347.252 65.9933 347.732 68.3453C350.298 80.932 356.151 97.792 362.47 108.517L391.952 96.3227C392.155 91.1213 384.998 74.2947 377.707 58.032C376.396 55.108 373.888 52.9333 370.774 53.6893Z" fill="#406FBF"/>
<path d="M362.092 107.868C357.893 100.559 353.927 90.6175 351.028 81.1255C349.664 76.6588 348.536 72.2921 347.732 68.3455C347.653 67.9601 347.615 67.5722 347.615 67.1882C347.613 65.2322 348.604 63.3748 350.308 62.3135C350.623 62.1175 350.947 61.9202 351.277 61.7255C351.345 61.8055 351.412 61.8868 351.476 61.9642C357.405 61.8108 362.437 60.4335 366.149 58.5721C366.148 58.6321 366.148 58.6935 366.148 58.7535C366.148 61.0962 367.385 63.3695 369.581 64.5882L369.605 64.6028L378.183 69.3628C380.231 72.0562 383.373 74.8375 385.784 76.6828C388.976 84.4761 391.349 91.1068 391.856 94.8041C390.583 95.4615 377.336 102.249 362.092 107.868ZM358.584 92.3775C358.716 92.3855 358.847 92.3895 358.973 92.3895C359.412 92.3895 359.823 92.3388 360.209 92.2441C360.209 92.2441 373.223 87.3935 377.161 85.6161C374.509 80.1241 370.189 68.1322 370.189 68.1322L368.564 68.2655C364.367 68.5455 355.216 71.9922 351.964 74.4588C352.521 78.8015 355.777 88.0308 358.584 92.3775Z" fill="#FCA5A5"/>
<path d="M385.792 76.6895C385.789 76.6868 385.787 76.6854 385.784 76.6828C385.247 75.3721 384.688 74.0308 384.109 72.6628C384.111 72.6628 384.112 72.6641 384.113 72.6641C384.692 74.0321 385.253 75.3748 385.792 76.6895Z" fill="#5E89CF"/>
<path d="M385.784 76.6826C383.373 74.8373 380.231 72.056 378.183 69.3626L379.689 70.2C381.168 71.0146 382.652 71.836 384.109 72.6626C384.688 74.0306 385.247 75.372 385.784 76.6826Z" fill="#EF4444"/>
<path d="M368.831 40.4841C366.397 35.8428 361.132 33.5054 354.81 34.0334C349.478 34.4788 344.751 39.9214 345.311 42.8628C345.871 45.8041 350.357 47.0481 351.171 48.0708L347.473 50.7508C345.633 52.0854 345.274 54.6801 346.679 56.4668C348.235 58.4441 350.284 60.5068 351.476 61.9641C361.695 61.6988 369.252 57.8014 371.976 54.0508C370.996 49.2774 371.251 45.1001 368.831 40.4841Z" fill="#406FBF"/>
<path d="M351.476 61.9641C350.284 60.5068 348.234 58.4441 346.678 56.4668C346.1 55.7308 345.82 54.8574 345.82 53.9908C345.821 52.7561 346.39 51.5348 347.473 50.7508L351.17 48.0708C350.357 47.0481 345.87 45.8041 345.31 42.8628C345.28 42.7014 345.265 42.5334 345.265 42.3588C345.269 39.3414 349.769 34.4534 354.809 34.0334C355.396 33.9841 355.974 33.9601 356.542 33.9601C362.085 33.9601 366.624 36.2748 368.83 40.4841C370.933 44.4934 371.017 48.1734 371.645 52.2001C369.74 52.5414 367.997 53.7014 366.986 55.5228C366.448 56.4921 366.177 57.5361 366.149 58.5721C362.437 60.4334 357.405 61.8108 351.476 61.9641Z" fill="#FCA5A5"/>
<path d="M363.821 43.3574C365.852 48.5507 363.286 54.4081 358.093 56.4387C352.898 58.4681 347.043 55.9027 345.013 50.7094C342.983 45.5147 345.548 39.6587 350.741 37.6294C355.936 35.6001 361.792 38.1627 363.821 43.3574Z" fill="#17282F"/>
<path d="M450.392 163.519C450.243 159.133 450.053 159.572 449.927 155.832C449.851 153.561 449.84 151.048 449.825 148.869C449.811 146.743 448.308 144.923 446.225 144.5C444.457 144.141 442.685 143.8 440.923 143.425C438.621 142.935 436.347 142.405 434.085 141.749C432.333 141.24 430.597 140.679 428.88 140.059C427.041 139.396 425.225 138.671 423.428 137.9C421.327 136.999 419.251 136.039 417.191 135.049C414.889 133.945 412.608 132.805 410.333 131.649C401.557 117.121 401.369 107.551 391.952 96.3227L371.737 105.465C371.737 105.465 386.591 131.819 396.704 142.992C402.527 149.423 411.663 152.321 419.808 154.425C425.685 155.943 431.645 157.104 437.612 158.2C439.932 158.625 442.455 158.791 444.449 160.175C446.021 161.267 446.835 162.968 447.3 164.777C447.395 165.147 447.475 165.52 447.545 165.895C447.757 167.012 450.483 166.169 450.392 163.519Z" fill="#406FBF"/>
<path d="M448.228 166.376C447.878 166.376 447.607 166.217 447.546 165.895C447.475 165.52 447.395 165.147 447.3 164.777C446.835 162.968 446.022 161.267 444.45 160.175C442.455 158.791 439.932 158.625 437.612 158.2C437.535 158.185 437.458 158.172 437.38 158.157C439.719 151.831 440.087 145.135 440.142 143.257C439.346 143.083 438.538 142.904 437.732 142.715C437.795 147.317 435.636 155.271 434.844 157.679C435.438 157.791 436.039 157.907 436.636 158.02C430.995 156.976 425.364 155.859 419.808 154.425C411.663 152.321 402.527 149.423 396.704 142.992C387.684 133.027 374.895 110.988 372.235 106.337C378.414 103.917 386.46 100.512 392.542 97.0386C401.38 107.96 401.746 117.432 410.334 131.649C412.608 132.805 414.89 133.945 417.191 135.049C419.251 136.039 421.327 136.999 423.428 137.9C425.226 138.671 427.042 139.396 428.88 140.059C430.598 140.679 432.334 141.24 434.086 141.749C436.347 142.405 438.622 142.935 440.923 143.425C442.284 143.715 443.65 143.984 445.016 144.257C444.996 144.253 444.976 144.251 444.956 144.247C445.046 145.5 445.824 146.955 447.127 148.109C447.98 148.879 448.944 149.391 449.831 149.632C449.844 151.621 449.859 153.823 449.927 155.832C450.054 159.572 450.243 159.133 450.392 163.519C450.394 163.563 450.395 163.607 450.395 163.649C450.392 165.451 449.075 166.376 448.228 166.376ZM449.83 149.437C449.824 149.244 449.823 149.056 449.822 148.869C449.816 148.015 449.572 147.211 449.147 146.527C449.574 147.211 449.82 148.015 449.826 148.869C449.827 149.056 449.828 149.245 449.83 149.437Z" fill="#FCA5A5"/>
<path d="M437.38 158.161C437.132 158.115 436.884 158.067 436.636 158.02C436.884 158.065 437.132 158.112 437.38 158.157C437.38 158.159 437.38 158.16 437.38 158.161Z" fill="#B8D2EF"/>
<path d="M437.38 158.157C437.132 158.112 436.884 158.065 436.636 158.02C436.038 157.907 435.437 157.791 434.844 157.679C435.636 155.271 437.794 147.317 437.732 142.715C438.537 142.904 439.345 143.083 440.141 143.257C440.086 145.135 439.718 151.831 437.38 158.157Z" fill="#F87171"/>
<path d="M449.836 149.633C449.833 149.633 449.832 149.632 449.831 149.632C449.829 149.567 449.829 149.501 449.829 149.437C449.831 149.501 449.833 149.567 449.836 149.633ZM449.147 146.527C448.511 145.507 447.472 144.753 446.225 144.5C445.821 144.419 445.419 144.337 445.016 144.257C445.419 144.328 445.831 144.413 446.229 144.495C447.476 144.751 448.512 145.505 449.147 146.527Z" fill="#B8D2EF"/>
<path d="M449.831 149.632C448.944 149.391 447.98 148.879 447.127 148.109C445.824 146.955 445.045 145.5 444.956 144.247C444.976 144.251 444.996 144.253 445.016 144.257C445.419 144.337 445.821 144.419 446.225 144.5C447.472 144.753 448.511 145.507 449.147 146.527C449.572 147.211 449.816 148.015 449.821 148.869C449.823 149.056 449.824 149.244 449.829 149.437C449.829 149.501 449.829 149.567 449.831 149.632Z" fill="#F87171"/>
<path d="M361.935 43.444C362.475 45.4654 360.212 47.5907 358.402 45.8414C356.934 44.4227 354.719 42.048 352.912 40.9187C351.058 39.7574 353.531 37.7347 356.447 38.52C359.168 39.252 361.395 41.4214 361.935 43.444Z" fill="white"/>
<path d="M362.089 107.869C361.149 108.215 362.867 109.812 362.867 109.812C362.867 109.812 381.493 103.428 392.86 96.856C392.956 95.4827 391.956 94.752 391.956 94.752C391.956 94.752 378.127 101.957 362.089 107.869Z" fill="#406FBF"/>
<path d="M362.867 109.812C362.867 109.812 361.808 108.828 361.808 108.237C361.808 108.076 361.887 107.944 362.089 107.869C378.127 101.957 391.956 94.752 391.956 94.752C391.956 94.752 392.864 95.4147 392.867 96.6667C392.867 96.728 392.864 96.792 392.86 96.856C392.755 96.9174 392.648 96.9773 392.541 97.0387C386.46 100.512 378.413 103.917 372.235 106.337C366.839 108.451 362.867 109.812 362.867 109.812Z" fill="#F87171"/>
<path d="M375.821 52.8066C379.499 54.6626 382.96 56.6306 386.417 58.8066C388.139 59.8906 389.852 61.004 391.54 62.2053C393.241 63.3813 394.92 64.624 396.605 66.0213L397.237 66.5386L398.025 67.2493C398.585 67.744 398.995 68.1973 399.407 68.6506C399.839 69.1186 400.196 69.5706 400.545 70.02C400.909 70.4706 401.255 70.9213 401.565 71.364C402.885 73.1347 403.96 74.9346 405.013 76.7226C407.063 80.344 408.837 83.9613 410.301 87.8533C410.955 89.5906 410.077 91.5266 408.34 92.18C407.036 92.6706 405.619 92.2973 404.717 91.3453L404.651 91.272C401.972 88.436 399.403 85.444 396.817 82.6627C394.288 79.8893 391.601 77.0453 389.435 75.808C386.408 73.9213 383.037 72.0453 379.689 70.2L369.605 64.6027L369.581 64.588C366.361 62.8013 365.199 58.7426 366.987 55.5226C368.728 52.384 372.643 51.208 375.821 52.8066Z" fill="#406FBF"/>
<path d="M403.284 89.8027C401.091 87.4174 398.96 84.9667 396.817 82.6627C394.288 79.8894 391.601 77.0454 389.435 75.808C387.745 74.7547 385.949 73.7054 384.109 72.6627C382.652 71.8361 381.168 71.0147 379.689 70.2001L378.183 69.3627L369.605 64.6027L369.581 64.5881C367.385 63.3694 366.148 61.0961 366.148 58.7534C366.148 57.6587 366.417 56.5481 366.987 55.5227C368.204 53.3294 370.481 52.0947 372.828 52.0947C373.84 52.0947 374.864 52.3254 375.821 52.8067C379.499 54.6627 382.96 56.6307 386.417 58.8067C388.139 59.8907 389.852 61.004 391.54 62.2054C393.241 63.3814 394.92 64.6241 396.605 66.0214L397.237 66.5387L398.025 67.2494C398.585 67.744 398.995 68.1974 399.407 68.6507C399.839 69.1187 400.196 69.5707 400.545 70.0201C400.909 70.4707 401.255 70.9214 401.565 71.3641C402.885 73.1347 403.96 74.9347 405.013 76.7227C406.952 80.1481 408.644 83.5694 410.061 87.2241C409.885 87.0961 409.697 86.9867 409.497 86.8961L402.777 87.9534L403.012 88.5414L403.003 88.5387C403.165 88.8987 403.253 89.3294 403.284 89.8027Z" fill="#FCA5A5"/>
<path d="M413.519 94.3747L412.387 91.54C412.387 91.54 411.755 87.908 409.497 86.896L402.777 87.9534L403.012 88.5414L403.003 88.5387C403.624 89.9147 403.153 92.3054 402.549 94.26C401.944 96.2134 402.971 96.4507 403.816 96.0747C404.304 95.8574 404.761 94.9947 405.277 94.0667C405.523 94.5507 405.793 95.0214 406.115 95.4614L407.759 97.7174C408.468 98.6894 409.812 98.9414 410.827 98.292L412.632 97.1361C413.552 96.5467 413.925 95.3894 413.519 94.3747Z" fill="#406FBF"/>
<path d="M409.6 98.6521C408.895 98.6521 408.203 98.3254 407.759 97.7174L406.115 95.4614C405.793 95.0214 405.523 94.5508 405.277 94.0668C404.761 94.9948 404.304 95.8574 403.816 96.0748C403.604 96.1694 403.381 96.2254 403.175 96.2254C402.732 96.2254 402.368 95.9668 402.367 95.2774C402.367 95.0081 402.421 94.6721 402.549 94.2601C402.953 92.9534 403.297 91.4534 403.296 90.1921C403.295 89.5641 403.209 88.9961 403.003 88.5388L403.012 88.5414L402.777 87.9534L409.497 86.8961C411.755 87.9081 412.387 91.5401 412.387 91.5401L413.519 94.3748C413.629 94.6521 413.683 94.9401 413.683 95.2241C413.68 95.9801 413.3 96.7081 412.632 97.1361L410.827 98.2921C410.447 98.5348 410.021 98.6521 409.6 98.6521Z" fill="#FCA5A5"/>
<path d="M358.973 92.3894C358.847 92.3894 358.716 92.3854 358.584 92.3774C363.459 90.6961 371.597 87.5267 375.536 85.7494C372.884 80.2574 370.092 72.6894 368.564 68.2654L370.189 68.1321C370.189 68.1321 374.509 80.1241 377.161 85.6161C373.223 87.3934 360.209 92.2441 360.209 92.2441C359.823 92.3387 359.412 92.3894 358.973 92.3894Z" fill="#EF4444"/>
<path d="M351.964 74.4588C352.521 78.8015 355.777 88.0308 358.584 92.3774C363.459 90.6961 371.597 87.5268 375.536 85.7494C372.884 80.2574 370.092 72.6895 368.564 68.2655C364.367 68.5455 355.216 71.9921 351.964 74.4588Z" fill="#F87171"/>
<path d="M358.581 82.1267C358.255 82.1267 357.923 82.08 357.593 81.9827C355.775 81.4387 354.741 79.5214 355.285 77.7014C355.732 76.2107 357.097 75.248 358.577 75.248C358.904 75.248 359.236 75.2947 359.565 75.3934C361.385 75.9387 362.419 77.8547 361.875 79.6734C361.428 81.164 360.061 82.1267 358.581 82.1267Z" fill="#FCA5A5"/>
<path d="M363.346 75.884C363.24 75.884 363.13 75.8694 363.022 75.8361C362.426 75.6587 362.088 75.0307 362.266 74.4347C362.412 73.9454 362.86 73.6294 363.345 73.6294C363.452 73.6294 363.561 73.6454 363.669 73.6774C364.265 73.856 364.604 74.484 364.425 75.08C364.28 75.568 363.832 75.884 363.346 75.884Z" fill="#EF4444"/>
<path d="M366.323 74.7253C366.216 74.7253 366.107 74.7107 365.999 74.6773C365.403 74.4987 365.063 73.872 365.241 73.2747C365.388 72.7867 365.836 72.4707 366.321 72.4707C366.428 72.4707 366.537 72.4867 366.644 72.5187C367.241 72.6973 367.58 73.3253 367.401 73.9213C367.255 74.4093 366.808 74.7253 366.323 74.7253Z" fill="#EF4444"/>
<path d="M359.267 89.1775L358.521 86.7535L370.85 81.8802L371.596 84.3055L359.267 89.1775Z" fill="#EF4444"/>
<path d="M282.337 342.949C278.956 342.949 275.74 342.815 272.685 342.544V342.54C275.74 342.811 278.957 342.945 282.336 342.945C284.409 342.945 286.429 342.896 288.397 342.796C286.433 342.899 284.416 342.949 282.337 342.949ZM272.352 342.513C268.76 342.183 265.397 341.663 262.26 340.956C265.397 341.661 268.761 342.18 272.352 342.511V342.513ZM250.556 336.955C250.249 336.805 249.944 336.652 249.644 336.496C249.564 336.455 249.484 336.413 249.404 336.371C249.482 336.412 249.561 336.453 249.64 336.493C249.941 336.651 250.246 336.804 250.556 336.955ZM292.762 308.861C293.176 308.527 293.581 308.169 293.977 307.789C297.192 304.717 299.582 299.919 301.158 293.395C299.585 299.921 297.193 304.717 293.981 307.789C293.584 308.169 293.177 308.527 292.762 308.861Z" fill="#C3C5C2"/>
<path d="M272.685 342.544C272.575 342.533 272.463 342.524 272.352 342.513V342.511C272.463 342.521 272.573 342.531 272.685 342.54V342.544Z" fill="#B1B3B1"/>
<path d="M288.397 342.796C288.509 342.789 288.62 342.784 288.731 342.779C288.62 342.784 288.508 342.791 288.397 342.796Z" fill="#B1B3B1"/>
<path d="M282.336 342.945C278.958 342.945 275.74 342.811 272.686 342.54C272.574 342.531 272.463 342.521 272.352 342.511C268.762 342.18 265.398 341.661 262.26 340.956C257.927 339.979 254.026 338.645 250.556 336.955C250.247 336.804 249.942 336.651 249.64 336.493C249.562 336.453 249.483 336.412 249.404 336.371C248.952 336.133 248.504 335.889 248.062 335.64L265.062 317.581C267.616 314.868 270.09 312.083 272.479 309.229C275.248 311.444 278.5 312.551 282.231 312.551C286.21 312.551 289.723 311.32 292.763 308.861C293.178 308.527 293.584 308.169 293.982 307.789C297.194 304.717 299.586 299.921 301.159 293.395C301.211 293.181 301.262 292.967 301.311 292.749C302.538 287.389 303.284 279.669 303.551 269.616L329.164 252.429L309.364 304.056C304.151 317.683 297.391 330.669 289.231 342.749C289.075 342.759 288.92 342.768 288.764 342.776C288.754 342.777 288.742 342.777 288.731 342.779C288.62 342.784 288.51 342.789 288.398 342.796C286.43 342.896 284.41 342.945 282.336 342.945Z" fill="#991B1B"/>
<path d="M125.059 340C132.521 347.463 148.394 363.336 148.394 363.336L213.741 301.779C191.254 293.231 147.418 317.64 125.059 340Z" fill="#7F1D1D"/>
<path d="M206.438 421.38C198.975 413.916 183.102 398.044 183.102 398.044L244.659 332.696C253.207 355.183 228.798 399.018 206.438 421.38Z" fill="#7F1D1D"/>
<path d="M295.739 274.323L321.195 225.244L272.116 250.699C256.348 258.877 241.791 269.201 228.858 281.376L145.195 360.136L186.301 401.244L265.061 317.581C277.237 304.648 287.562 290.089 295.739 274.323Z" fill="#406FBF"/>
<path d="M186.301 401.244L148.395 363.336L145.195 360.136L189.9 318.051L159.96 346.236L200.201 386.479L186.301 401.244Z" fill="#EF4444"/>
<path d="M203.615 382.854L231.22 353.53L192.908 315.218L228.858 281.376C241.791 269.202 256.348 258.878 272.116 250.699L321.195 225.244L303.656 259.059L295.739 274.323C293.555 278.535 291.216 282.662 288.731 286.694C288.62 286.872 288.508 287.052 288.398 287.232C283.616 294.93 278.299 302.28 272.479 309.23C270.09 312.083 267.616 314.868 265.062 317.582L248.062 335.64L248.06 335.642L203.615 382.854Z" fill="#EF4444"/>
<path d="M255.632 315.128C248.916 321.844 238.027 321.844 231.309 315.128C224.593 308.412 224.593 297.521 231.309 290.805C238.027 284.089 248.916 284.089 255.632 290.805C262.349 297.521 262.349 308.412 255.632 315.128Z" fill="#FACC15"/>
<path d="M251.283 310.777C246.968 315.092 239.973 315.092 235.66 310.777C231.345 306.464 231.345 299.469 235.66 295.156C239.973 290.841 246.968 290.841 251.283 295.156C255.596 299.469 255.596 306.464 251.283 310.777Z" fill="#991B1B"/>
<path d="M200.201 386.479L159.96 346.236L189.9 318.051L192.908 315.217L231.22 353.529L203.615 382.853L200.201 386.479Z" fill="#DC2626"/>
<path d="M134.168 376.879C104.028 379.33 94.0431 398.619 90.6384 424.264C88.9025 437.342 88.1321 450.573 77.1499 458.23C74.102 460.355 75.6155 465.092 79.3296 464.976C119.781 463.713 138.649 443.904 141.019 435.61C140.203 440.854 139.013 444.991 137.696 448.243C136.341 451.585 140.012 454.679 143.068 452.766C154.424 445.651 168.667 432.558 169.613 411.328C161.216 399.527 134.168 376.879 134.168 376.879Z" fill="#406FBF"/>
<path d="M79.1966 464.977C76.9294 464.977 75.5174 463.151 75.521 461.269C75.5237 460.151 76.0267 459.013 77.1502 458.229C88.1325 450.573 88.9029 437.341 90.6387 424.264C94.0434 398.618 104.028 379.329 134.168 376.879C134.168 376.879 161.216 399.527 169.614 411.328C168.667 432.557 154.424 445.651 143.068 452.765C142.419 453.172 141.742 453.352 141.091 453.352C139.127 453.352 137.403 451.709 137.407 449.677C137.408 449.215 137.499 448.73 137.696 448.243C139.014 444.991 140.203 440.853 141.019 435.61C138.65 443.904 119.781 463.713 79.3299 464.976C79.2846 464.977 79.2409 464.977 79.1966 464.977Z" fill="#B91C1C"/>
<path d="M174.243 420.456L125.981 372.196L151.691 366.633L179.804 394.747L174.243 420.456Z" fill="#991B1B"/>
</g>
<defs>
<clipPath id="clip0_106_2">
<rect width="561.08" height="520.12" fill="white"/>
</clipPath>
</defs>
</svg>
